<svg width="159" height="64" viewBox="0 0 159 64" fill="none" xmlns="http://www.w3.org/2000/svg">
<path d="M58.4636 26.24C57.7383 26.24 57.1516 26.0267 56.7036 25.6C56.277 25.152 56.0636 24.5867 56.0636 23.904C56.0636 23.2213 56.277 22.6667 56.7036 22.24C57.1516 21.792 57.7383 21.568 58.4636 21.568C59.189 21.568 59.7756 21.792 60.2236 22.24C60.6716 22.6667 60.8956 23.2213 60.8956 23.904C60.8956 24.5867 60.6716 25.152 60.2236 25.6C59.7756 26.0267 59.189 26.24 58.4636 26.24ZM56.6396 28.032H60.3196V44H56.6396V28.032ZM65.0011 28.032H68.4251V30.112C68.8945 29.408 69.5131 28.8427 70.2811 28.416C71.0491 27.9893 71.8171 27.776 72.5851 27.776H74.5691C76.2118 27.776 77.5238 28.2987 78.5051 29.344C79.5078 30.3893 80.0091 31.7653 80.0091 33.472V44H76.3291V33.568C76.3291 32.8 76.1265 32.1813 75.7211 31.712C75.3371 31.2213 74.8251 30.976 74.1851 30.976H72.2011C71.3691 30.976 70.6225 31.296 69.9611 31.936C69.2998 32.5547 68.8731 33.3547 68.6811 34.336V44H65.0011V28.032ZM98.5314 44H94.8514V31.168H89.0914V44H85.4114V31.168H82.6594V28H85.4114V26.912C85.4114 25.184 85.9234 23.8507 86.9474 22.912C87.9927 21.952 89.454 21.472 91.3314 21.472H96.0034V24.608H91.3954C90.606 24.608 90.0194 24.8 89.6354 25.184C89.2727 25.5467 89.0914 26.1333 89.0914 26.944V28H98.5314V44ZM102.626 28.032H106.05V30.112C106.519 29.408 107.138 28.8427 107.906 28.416C108.674 27.9893 109.442 27.776 110.21 27.776H112.194C113.837 27.776 115.149 28.2987 116.13 29.344C117.133 30.3893 117.634 31.7653 117.634 33.472V44H113.954V33.568C113.954 32.8 113.751 32.1813 113.346 31.712C112.962 31.2213 112.45 30.976 111.81 30.976H109.826C108.994 30.976 108.247 31.296 107.586 31.936C106.925 32.5547 106.498 33.3547 106.306 34.336V44H102.626V28.032ZM123.932 26.24C123.207 26.24 122.62 26.0267 122.172 25.6C121.746 25.152 121.532 24.5867 121.532 23.904C121.532 23.2213 121.746 22.6667 122.172 22.24C122.62 21.792 123.207 21.568 123.932 21.568C124.658 21.568 125.244 21.792 125.692 22.24C126.14 22.6667 126.364 23.2213 126.364 23.904C126.364 24.5867 126.14 25.152 125.692 25.6C125.244 26.0267 124.658 26.24 123.932 26.24ZM122.108 28.032H125.788V44H122.108V28.032ZM137.222 44C135.409 44 134.086 43.5947 133.254 42.784C132.422 41.9733 132.006 40.6933 132.006 38.944V31.2H129.19V28.032H132.102V23.2H135.686V28.032H139.846V31.2H135.686V38.816C135.686 39.52 135.825 40.032 136.102 40.352C136.379 40.672 136.817 40.832 137.414 40.832H139.846V44H137.222ZM148.734 44.256C147.432 44.256 146.28 44.0107 145.278 43.52C144.296 43.0293 143.528 42.336 142.974 41.44C142.44 40.544 142.174 39.5093 142.174 38.336V34.048C142.174 32.8107 142.44 31.7227 142.974 30.784C143.528 29.824 144.296 29.088 145.278 28.576C146.28 28.0427 147.432 27.776 148.734 27.776H151.294C153.235 27.776 154.792 28.3413 155.966 29.472C157.139 30.6027 157.726 32.1067 157.726 33.984V37.184H145.854V38.336C145.854 39.1893 146.11 39.872 146.622 40.384C147.155 40.896 147.859 41.152 148.734 41.152H151.198C152.051 41.152 152.734 40.9493 153.246 40.544C153.779 40.1173 154.046 39.5627 154.046 38.88H157.662C157.662 40.5013 157.064 41.8027 155.87 42.784C154.675 43.7653 153.107 44.256 151.166 44.256H148.734ZM154.11 34.432V33.984C154.11 33.0453 153.854 32.288 153.342 31.712C152.83 31.136 152.158 30.848 151.326 30.848H148.734C147.859 30.848 147.144 31.1573 146.59 31.776C146.056 32.3733 145.79 33.1627 145.79 34.144V34.432H154.11Z" fill="white"/>
<rect y="10" width="44" height="44" rx="8" fill="#FDC300"/>
<path d="M30.2617 25.0117C31.4727 25.0117 32.5859 25.3242 33.6016 25.9492C34.6562 26.5352 35.4766 27.3555 36.0625 28.4102C36.6875 29.4258 37 30.5391 37 31.75C37 32.9609 36.6875 34.0938 36.0625 35.1484C35.4766 36.1641 34.6562 36.9844 33.6016 37.6094C32.5859 38.1953 31.4727 38.4883 30.2617 38.4883C28.3867 38.4883 26.7852 37.8242 25.457 36.4961L22 33.4492L18.4844 36.5547C17.8594 37.1797 17.1367 37.668 16.3164 38.0195C15.4961 38.332 14.6367 38.4883 13.7383 38.4883C12.5273 38.4883 11.3945 38.1953 10.3398 37.6094C9.32422 36.9844 8.50391 36.1641 7.87891 35.1484C7.29297 34.0938 7 32.9609 7 31.75C7 30.5391 7.29297 29.4258 7.87891 28.4102C8.50391 27.3555 9.32422 26.5352 10.3398 25.9492C11.3945 25.3242 12.5273 25.0117 13.7383 25.0117C14.6367 25.0117 15.4961 25.1875 16.3164 25.5391C17.1367 25.8906 17.8789 26.3789 18.543 27.0039L22 30.0508L25.5156 26.9453C26.1406 26.3203 26.8633 25.8516 27.6836 25.5391C28.5039 25.1875 29.3633 25.0117 30.2617 25.0117ZM16.7266 34.7383L20.125 31.75L16.7852 28.8203C15.9258 27.9609 14.9102 27.5312 13.7383 27.5312C12.5664 27.5312 11.5703 27.9414 10.75 28.7617C9.92969 29.582 9.51953 30.5781 9.51953 31.75C9.51953 32.9219 9.92969 33.918 10.75 34.7383C11.5703 35.5586 12.5664 35.9688 13.7383 35.9688C14.9102 35.9688 15.9062 35.5586 16.7266 34.7383ZM27.2734 28.7617L23.875 31.75L27.2148 34.6797C28.0742 35.5391 29.0898 35.9688 30.2617 35.9688C31.4336 35.9688 32.4297 35.5586 33.25 34.7383C34.0703 33.918 34.4805 32.9219 34.4805 31.75C34.4805 30.5781 34.0703 29.582 33.25 28.7617C32.4297 27.9414 31.4336 27.5312 30.2617 27.5312C29.0898 27.5312 28.0938 27.9414 27.2734 28.7617Z" fill="white"/>
</svg>
